<?xml version="1.0" standalone="no"?>
<!DOCTYPE svg PUBLIC "-//W3C//DTD SVG 20010904//EN"
 "http://www.w3.org/TR/2001/REC-SVG-20010904/DTD/svg10.dtd">
<svg version="1.0" xmlns="http://www.w3.org/2000/svg"
 width="1000.000000pt" height="371.000000pt" viewBox="0 0 1000.000000 371.000000"
 preserveAspectRatio="xMidYMid meet">
<metadata>
Created by potrace 1.16, written by Peter Selinger 2001-2019
</metadata>
<g transform="translate(0.000000,371.000000) scale(0.100000,-0.100000)"
fill="#000000" stroke="none">
<path d="M18 3609 c-2 -55 -1 -103 1 -105 2 -2 2249 -4 4993 -4 l4988 0 0 105
0 105 -4989 0 -4990 0 -3 -101z m9922 -4 l0 -45 -4930 0 -4930 0 0 45 0 45
4930 0 4930 0 0 -45z"/>
<path d="M450 3349 c-30 -5 -96 -29 -146 -54 -152 -75 -238 -188 -285 -375
-17 -67 -21 -104 -17 -181 4 -89 9 -106 45 -182 47 -97 133 -195 215 -244 30
-19 164 -69 308 -117 238 -79 257 -87 292 -124 58 -63 72 -142 42 -242 -22
-74 -100 -152 -174 -174 -144 -43 -344 3 -453 103 -50 47 -93 121 -132 234
l-28 78 -36 -3 -36 -3 -22 -275 c-12 -151 -22 -294 -22 -318 l-1 -43 46 32
c54 37 56 37 324 -6 276 -45 491 -26 666 60 101 49 199 136 257 227 143 225
119 552 -53 711 -73 68 -141 100 -426 203 -266 95 -278 101 -316 141 -47 50
-59 109 -37 184 46 151 263 213 423 120 100 -58 227 -182 249 -244 2 -7 7 -10
9 -7 7 7 87 454 82 459 -2 2 -22 -9 -45 -24 l-42 -27 -106 35 c-58 20 -146 43
-195 52 -95 16 -295 18 -386 4z m354 -64 c55 -8 145 -31 202 -50 56 -19 109
-35 118 -35 9 0 16 -8 15 -17 0 -26 -25 -163 -30 -168 -3 -2 -34 21 -69 51
-127 108 -234 151 -352 141 -177 -15 -298 -132 -298 -289 0 -77 14 -114 64
-166 43 -46 67 -57 339 -156 131 -47 265 -100 298 -117 157 -79 229 -208 229
-409 0 -161 -48 -277 -162 -392 -176 -176 -435 -221 -858 -150 -102 17 -195
29 -208 26 -17 -5 -22 -2 -22 12 0 32 21 287 26 322 5 34 6 33 39 -38 76 -157
223 -250 435 -275 69 -8 187 15 244 49 55 32 113 96 140 155 17 37 21 65 21
141 0 107 -11 138 -73 202 -41 43 -71 55 -369 154 -221 72 -265 95 -344 182
-146 160 -167 364 -58 581 106 213 336 297 673 246z"/>
<path d="M2220 3298 c-32 -16 -75 -18 -460 -18 -378 0 -428 2 -449 16 -31 22
-34 16 -55 -109 -10 -56 -28 -163 -41 -237 -19 -103 -22 -136 -12 -142 19 -12
27 -10 33 10 3 9 21 49 40 89 53 111 151 190 251 201 l43 5 0 -571 0 -571 -31
-36 c-18 -20 -48 -40 -70 -47 -35 -10 -40 -15 -37 -37 l3 -26 333 -3 333 -2
-3 32 c-3 28 -8 33 -38 39 -40 8 -75 47 -90 99 -6 21 -10 251 -10 578 l0 542
28 0 c112 0 241 -114 297 -262 17 -47 40 -62 51 -34 5 13 -61 442 -74 481 -7
20 -8 20 -42 3z m6 -153 c7 -38 13 -76 13 -83 1 -8 -20 5 -45 27 -51 45 -124
76 -202 86 -46 6 -54 4 -77 -19 l-25 -25 1 -438 c1 -570 8 -717 37 -767 12
-20 22 -39 22 -42 0 -2 -81 -4 -180 -4 -99 0 -180 2 -180 4 0 3 10 22 23 43
l22 38 3 582 3 583 -26 26 c-22 22 -31 24 -73 19 -78 -11 -134 -33 -189 -75
-29 -22 -53 -36 -53 -32 0 13 20 125 25 140 4 10 98 12 447 10 l442 -3 12 -70z"/>
<path d="M6277 3305 c-175 -33 -307 -121 -401 -265 l-36 -55 0 -375 0 -375 47
-80 c61 -106 176 -220 263 -262 129 -62 182 -68 610 -68 l385 0 3 26 c2 21 -4
31 -30 46 -24 14 -38 32 -46 60 -14 48 -16 527 -3 587 11 43 54 94 88 102 16
4 23 14 23 30 l0 24 -295 0 -295 0 0 -30 c0 -26 4 -30 28 -30 18 0 38 -10 53
-26 l24 -26 0 -251 c0 -224 -2 -256 -18 -289 -27 -54 -61 -73 -132 -72 -118 1
-209 75 -283 227 -63 130 -77 197 -77 377 0 132 4 167 23 235 63 219 168 325
320 325 53 0 154 -33 220 -70 58 -34 127 -118 171 -210 14 -30 27 -57 29 -59
1 -3 9 2 18 10 13 14 13 37 -6 220 -11 112 -23 223 -26 247 l-6 43 -23 -21
c-39 -36 -79 -39 -205 -13 -150 30 -320 37 -423 18z m408 -81 c33 -9 90 -17
127 -18 l67 -1 6 -75 c4 -41 9 -84 12 -95 3 -13 -8 -5 -30 21 -40 45 -142 103
-226 128 -70 20 -174 20 -234 0 -190 -65 -324 -397 -287 -710 30 -250 147
-462 295 -534 40 -19 66 -24 131 -25 71 0 85 3 121 27 26 17 49 45 64 75 23
47 24 54 24 313 0 146 -4 275 -8 288 l-8 22 151 0 151 0 -18 -32 c-16 -29 -18
-68 -21 -340 -3 -259 -1 -312 12 -343 9 -21 16 -40 16 -43 0 -2 -145 -2 -322
1 -357 6 -426 15 -532 69 -75 38 -164 122 -219 207 l-42 66 -3 375 -3 376 31
47 c68 101 203 191 326 216 76 15 347 6 419 -15z"/>
<path d="M8120 3294 c-37 -8 -196 -12 -497 -13 l-443 -1 0 -29 c0 -25 5 -31
30 -36 61 -13 60 -4 60 -650 0 -656 1 -643 -67 -672 -29 -11 -34 -18 -31 -41
l3 -27 490 -6 c270 -3 501 -9 515 -13 l25 -7 79 277 c75 263 78 278 60 291
-26 19 -28 17 -43 -32 -27 -93 -146 -245 -235 -302 -60 -39 -142 -63 -213 -63
-85 0 -134 25 -162 83 -20 41 -21 59 -21 320 l0 277 90 0 c71 0 99 -4 129 -20
52 -26 97 -82 123 -153 18 -50 24 -57 42 -51 12 4 22 8 24 9 3 3 -54 403 -74
523 -8 52 -38 38 -47 -23 -15 -91 -70 -125 -204 -125 l-93 0 1 98 c1 124 14
170 59 200 32 22 43 23 125 20 114 -6 185 -36 255 -108 49 -50 105 -150 116
-209 7 -36 14 -38 38 -12 15 17 14 33 -28 260 -24 133 -46 243 -48 245 -1 1
-28 -4 -58 -10z m13 -81 c3 -10 8 -36 11 -58 4 -22 9 -53 12 -68 l6 -28 -48
36 c-65 50 -113 73 -191 91 -118 28 -236 1 -281 -63 -33 -49 -42 -93 -42 -219
0 -160 -2 -158 172 -153 109 4 127 7 155 27 17 12 34 19 36 15 2 -5 8 -35 12
-67 4 -33 9 -66 13 -75 4 -11 -3 -9 -25 7 -69 49 -113 62 -219 62 -93 0 -102
-2 -123 -24 -22 -24 -22 -25 -19 -317 3 -333 7 -350 85 -421 108 -96 329 -62
477 73 31 28 56 49 56 48 -1 -2 -13 -47 -29 -99 l-27 -95 -432 -3 c-238 -1
-432 0 -432 2 0 2 7 20 15 39 12 30 15 129 15 646 0 412 -3 618 -10 631 -10
20 -5 20 387 23 219 1 403 3 410 5 6 1 14 -6 16 -15z"/>
<path d="M8287 3294 c-4 -4 -7 -20 -7 -35 0 -23 7 -31 44 -47 37 -17 46 -28
62 -68 18 -46 19 -89 19 -784 0 -675 -1 -738 -17 -766 -22 -40 -74 -84 -99
-84 -16 0 -19 -7 -19 -40 l0 -40 375 0 375 0 0 38 c0 34 -4 39 -42 57 -31 15
-49 32 -65 64 -23 43 -23 51 -23 361 l0 316 35 17 c20 9 37 17 39 17 12 0 165
-277 219 -395 110 -240 132 -316 103 -360 -9 -13 -31 -28 -49 -33 -28 -7 -32
-13 -35 -45 l-3 -37 396 0 396 0 -3 37 c-3 31 -8 38 -32 44 -63 17 -80 48
-160 279 -67 194 -173 415 -286 594 -44 71 -79 130 -78 131 2 1 32 21 68 45
100 67 182 156 226 246 38 75 39 82 39 178 0 90 -3 107 -27 152 -33 62 -88
108 -165 137 -57 22 -69 22 -668 25 -336 2 -614 0 -618 -4z m1253 -78 c104
-34 154 -93 166 -199 18 -151 -108 -340 -288 -433 -65 -33 -70 -59 -27 -127
169 -266 267 -461 345 -687 31 -91 68 -187 83 -215 14 -27 27 -52 28 -55 2 -3
-112 -5 -252 -5 -251 0 -255 0 -247 20 4 11 7 49 6 85 0 51 -8 85 -38 160 -99
246 -277 571 -329 600 -25 14 -30 13 -79 -14 -93 -50 -88 -28 -88 -367 0 -322
6 -372 49 -441 l27 -43 -248 0 c-136 0 -248 3 -248 7 0 4 5 10 10 13 6 4 20
25 33 48 l22 42 0 760 0 760 -24 50 c-14 28 -27 54 -29 58 -2 4 238 7 534 5
487 -3 544 -6 594 -22z"/>
<path d="M8974 3146 c-68 -17 -108 -47 -128 -96 -24 -59 -24 -601 0 -620 26
-22 67 -15 155 28 224 109 357 315 319 496 -30 145 -188 232 -346 192z m173
-71 c48 -20 71 -41 95 -89 29 -57 22 -161 -16 -238 -30 -59 -112 -148 -179
-194 -34 -23 -139 -74 -152 -74 -10 0 -5 496 6 533 7 27 19 42 47 57 46 24
147 26 199 5z"/>
<path d="M2310 3253 c0 -22 8 -31 33 -43 63 -30 62 -15 62 -660 0 -564 -1
-586 -20 -614 -10 -16 -34 -35 -53 -43 -28 -11 -33 -18 -30 -41 l3 -27 290 0
290 0 3 27 c3 22 -3 29 -30 42 -68 33 -73 52 -76 328 l-4 247 32 16 c18 9 33
15 35 13 23 -24 130 -219 176 -321 98 -214 104 -266 38 -289 -25 -8 -30 -15
-27 -37 l3 -26 398 -3 397 -2 0 30 c0 23 -6 33 -24 40 -43 16 -60 53 -53 118
6 53 90 359 102 371 10 10 150 -20 195 -41 59 -28 158 -131 194 -201 21 -43
28 -71 29 -116 0 -68 -17 -102 -63 -126 -23 -12 -30 -22 -30 -45 l0 -30 440 0
440 0 0 34 c0 28 -4 35 -25 40 -14 4 -33 21 -42 39 -16 29 -18 76 -20 552 l-3
520 23 -29 c109 -144 572 -802 592 -842 20 -39 26 -67 26 -119 1 -76 -19 -115
-62 -125 -19 -5 -24 -12 -24 -35 l0 -30 185 0 185 0 3 27 c3 22 -3 29 -30 42
-66 31 -63 5 -66 615 -2 368 1 572 8 607 11 50 36 84 73 97 11 4 17 17 17 37
l0 30 -185 0 -185 0 0 -30 c0 -20 6 -32 18 -36 31 -10 46 -20 64 -45 16 -21
19 -49 21 -227 1 -111 1 -202 -1 -202 -1 0 -61 88 -132 196 -80 119 -130 205
-130 220 0 14 11 36 25 50 14 14 25 36 25 50 l0 24 -352 -2 -353 -3 -3 -26
c-2 -21 3 -29 28 -39 68 -28 65 -2 65 -640 0 -487 -2 -581 -15 -614 -8 -22
-20 -41 -27 -43 -15 -5 -47 56 -66 127 -8 30 -54 195 -101 365 -48 171 -105
375 -127 455 -23 80 -49 174 -60 209 -25 84 -25 128 1 136 15 5 20 15 20 41
l0 34 -270 0 -270 0 0 -25 c0 -14 10 -39 22 -55 l22 -30 -76 -233 c-42 -127
-127 -386 -188 -574 -62 -188 -118 -350 -124 -359 -10 -14 -19 4 -56 111 -58
171 -149 352 -263 526 l-18 26 49 32 c62 39 153 134 180 187 40 78 46 211 14
271 -19 35 -77 82 -122 100 -41 16 -93 18 -532 21 l-488 3 0 -28z m992 -53
c20 -7 52 -28 70 -47 28 -29 33 -41 36 -97 2 -35 -1 -80 -8 -100 -24 -74 -128
-184 -217 -230 -56 -28 -53 -52 23 -172 99 -159 175 -313 224 -457 50 -147 69
-177 110 -177 39 0 61 33 104 160 229 683 340 1039 340 1088 l0 52 173 0 174
0 -6 -32 c-4 -24 16 -109 70 -303 42 -148 116 -416 166 -595 50 -179 100 -342
110 -362 10 -20 19 -40 19 -43 0 -3 -88 -5 -195 -5 l-196 0 17 31 c24 48 29
127 10 191 -36 123 -184 279 -299 313 -83 25 -175 35 -203 23 -25 -12 -33 -35
-104 -285 -32 -113 -38 -208 -16 -255 8 -17 -8 -18 -265 -18 l-274 0 -1 63
c-1 40 -10 85 -27 127 -75 195 -229 472 -272 492 -17 8 -33 4 -73 -16 -28 -14
-56 -35 -62 -47 -8 -14 -10 -104 -8 -282 3 -227 5 -266 21 -294 9 -18 17 -34
17 -38 0 -3 -74 -5 -165 -5 -91 0 -165 2 -165 3 0 2 8 19 18 38 15 31 17 84
20 604 2 528 -1 618 -24 678 -6 17 11 18 407 14 313 -2 423 -7 451 -17z m2010
-20 c-2 -22 -1 -51 2 -65 3 -13 69 -119 146 -234 145 -219 162 -236 209 -212
11 7 23 22 27 35 3 13 4 119 2 237 -3 182 -6 219 -21 247 l-18 32 59 0 59 0
-18 -52 c-17 -49 -18 -99 -19 -624 0 -483 2 -578 15 -614 8 -23 15 -44 15 -46
0 -2 -27 -4 -61 -4 -54 0 -60 2 -54 18 33 80 30 173 -9 256 -30 65 -619 891
-650 911 -27 18 -69 7 -80 -20 -3 -9 -6 -255 -6 -546 0 -448 2 -535 15 -566 8
-19 15 -39 15 -44 0 -5 -25 -9 -55 -9 -30 0 -55 2 -55 4 0 2 8 21 18 42 15 35
17 91 20 608 3 524 0 615 -23 669 -7 16 8 17 232 17 l239 0 -4 -40z"/>
<path d="M2810 3158 c-79 -40 -85 -60 -88 -308 -3 -243 1 -263 56 -268 50 -5
172 60 241 128 199 196 139 469 -104 470 -44 0 -73 -6 -105 -22z m197 -64 c72
-54 89 -141 45 -237 -29 -64 -113 -145 -192 -184 l-65 -32 -3 205 c-1 135 1
212 9 225 26 50 151 64 206 23z"/>
<path d="M3992 3023 c-25 -22 -146 -443 -137 -474 8 -25 29 -35 88 -42 51 -7
112 -34 165 -74 58 -44 117 -26 114 34 -3 58 -141 548 -159 560 -23 18 -47 16
-71 -4z m102 -304 c35 -129 62 -235 61 -237 -2 -2 -22 10 -46 26 -56 37 -121
62 -159 62 -17 0 -30 3 -30 8 0 13 105 380 108 377 2 -2 32 -108 66 -236z"/>
<path d="M1612 1313 c-23 -137 -42 -251 -42 -254 0 -4 9 -9 19 -12 16 -4 23 6
40 52 53 145 151 235 279 256 l42 7 0 -567 c0 -399 -3 -573 -11 -588 -21 -41
-62 -77 -96 -83 -28 -5 -33 -10 -33 -35 l0 -29 335 0 335 0 0 28 c0 24 -6 29
-48 42 -41 13 -50 21 -72 65 l-25 50 0 555 0 555 45 -3 c118 -9 239 -131 294
-294 6 -20 14 -22 33 -10 10 6 4 65 -27 257 -22 137 -42 250 -44 252 -1 2 -19
-4 -39 -12 -53 -22 -883 -23 -913 0 -10 8 -21 15 -24 15 -3 0 -25 -111 -48
-247z m988 82 c6 -38 14 -79 17 -90 4 -16 -1 -14 -28 11 -75 68 -159 104 -246
104 -78 0 -74 30 -71 -621 l3 -574 26 -53 26 -52 -184 0 -184 0 23 32 23 33 3
599 c3 676 7 636 -73 636 -65 0 -138 -27 -203 -74 l-59 -44 13 72 c8 39 14 76
14 81 0 7 155 10 445 10 l444 0 11 -70z"/>
<path d="M6947 1512 c-35 -34 -82 -35 -226 -4 -137 29 -324 31 -433 3 -149
-38 -271 -124 -350 -245 l-38 -59 0 -379 c0 -428 -5 -396 86 -525 86 -121 193
-197 331 -235 72 -20 107 -22 481 -26 l402 -4 0 31 c0 23 -7 34 -28 45 -15 8
-33 26 -40 41 -15 33 -17 591 -2 630 13 33 58 75 81 75 14 0 19 7 19 30 l0 30
-290 0 -290 0 0 -30 c0 -24 4 -30 21 -30 11 0 34 -13 50 -29 l29 -29 0 -247
c0 -265 -4 -288 -53 -334 -35 -32 -108 -39 -176 -16 -192 64 -328 419 -277
728 34 206 101 334 208 392 46 26 63 29 128 29 171 -3 315 -104 397 -281 25
-54 32 -60 49 -43 10 10 -32 489 -45 502 -4 4 -19 -5 -34 -20z m-197 -72 c47
-12 105 -20 132 -18 56 4 53 7 63 -106 l7 -78 -37 41 c-22 24 -69 57 -116 80
-288 145 -514 23 -601 -324 -18 -73 -22 -118 -23 -240 0 -182 16 -256 86 -402
79 -165 182 -252 311 -261 83 -6 124 5 168 44 69 63 75 93 75 386 0 192 -3
260 -12 270 -7 6 -13 16 -13 20 0 4 69 8 154 8 l153 0 -21 -42 c-20 -41 -21
-57 -21 -348 0 -277 2 -308 18 -338 l19 -34 -339 5 c-365 5 -407 10 -521 64
-72 33 -183 144 -234 233 l-38 65 0 360 0 361 28 45 c70 107 196 193 333 224
91 21 316 13 429 -15z"/>
<path d="M7685 1500 c-118 -25 -245 -97 -314 -178 -163 -190 -142 -479 43
-607 30 -21 136 -68 245 -110 106 -40 203 -80 215 -89 54 -35 71 -136 37 -211
-24 -53 -70 -91 -133 -110 -65 -19 -99 -19 -171 0 -166 43 -281 165 -333 352
-15 54 -20 63 -41 63 -15 0 -23 -6 -23 -17 3 -77 47 -564 53 -569 4 -4 16 1
27 11 20 18 26 18 213 -8 106 -15 221 -27 257 -27 191 1 404 98 503 229 66 88
91 176 85 300 -4 83 -10 109 -35 164 -36 76 -93 136 -160 170 -26 14 -118 50
-203 81 -186 69 -227 90 -257 135 -42 62 -19 177 43 218 48 31 154 24 236 -15
80 -39 126 -88 174 -189 32 -65 37 -71 57 -63 12 4 21 12 21 17 -1 4 -9 103
-19 218 -9 116 -19 216 -21 222 -2 9 -17 5 -51 -12 l-48 -24 -105 24 c-120 28
-237 38 -295 25z m274 -87 c63 -14 126 -22 142 -19 23 4 29 2 30 -12 0 -9 3
-47 7 -84 l8 -67 -36 32 c-135 122 -337 155 -434 69 -61 -54 -85 -195 -46
-272 35 -69 85 -98 324 -185 185 -68 239 -101 283 -174 99 -165 55 -391 -100
-509 -66 -50 -113 -74 -207 -103 -97 -31 -232 -31 -422 -1 -75 12 -150 22
-166 22 -29 0 -29 1 -35 68 -4 37 -7 86 -7 109 l0 42 55 -59 c195 -203 524
-197 615 12 46 106 20 231 -60 284 -20 14 -124 58 -229 98 -106 41 -210 87
-232 102 -46 32 -90 92 -108 147 -14 42 -17 155 -6 208 31 144 179 275 355
313 76 17 114 14 269 -21z"/>
<path d="M2700 1432 c0 -23 6 -30 34 -40 67 -24 66 -17 66 -619 0 -613 -2
-630 -66 -660 -27 -13 -34 -23 -34 -45 l0 -28 295 0 295 0 0 28 c0 23 -6 30
-36 41 -27 10 -41 23 -55 54 -17 39 -19 71 -19 405 l0 362 180 0 181 0 -3
-379 c-3 -366 -4 -381 -24 -408 -11 -15 -35 -32 -52 -38 -26 -7 -32 -14 -32
-37 l0 -28 300 0 300 0 0 29 c0 25 -5 31 -30 36 -17 4 -38 19 -48 33 -16 24
-17 75 -17 607 0 549 1 582 19 609 10 16 31 33 47 39 22 9 29 18 29 39 l0 28
-295 0 -295 0 0 -29 c0 -23 6 -30 33 -37 49 -15 61 -50 65 -191 l4 -123 -182
0 -183 0 5 108 c5 131 24 178 81 206 29 14 37 23 35 40 -3 21 -5 21 -300 24
l-298 2 0 -28z m455 -49 c-26 -63 -35 -117 -35 -212 0 -160 -14 -151 237 -151
178 0 209 2 225 17 16 14 18 33 18 155 0 98 -4 149 -14 173 l-15 35 165 0 c90
0 164 -2 164 -4 0 -2 -7 -21 -16 -42 -15 -35 -16 -102 -15 -608 2 -443 5 -577
15 -607 l14 -39 -164 0 c-90 0 -164 2 -164 4 0 2 7 20 15 39 12 30 15 102 15
422 0 247 -4 393 -10 406 -10 18 -23 19 -225 19 -181 0 -216 -2 -229 -16 -14
-13 -16 -64 -16 -408 0 -365 1 -394 19 -429 l19 -37 -164 0 c-90 0 -164 3
-164 8 0 4 8 27 17 52 16 41 17 95 14 615 -2 468 -6 575 -17 598 l-15 27 167
0 c154 0 166 -1 159 -17z"/>
<path d="M4090 1431 c0 -24 5 -30 29 -34 37 -8 67 -39 75 -79 3 -17 6 -276 6
-575 0 -615 2 -601 -72 -632 -31 -13 -38 -21 -38 -43 l0 -28 300 0 300 0 0 28
c0 21 -7 30 -29 39 -16 6 -37 23 -47 39 -18 27 -19 60 -19 599 0 629 -1 615
62 645 25 12 33 21 33 43 l0 27 -300 0 -300 0 0 -29z m463 -58 c-17 -25 -18
-72 -21 -610 -2 -504 -1 -587 13 -619 8 -20 15 -38 15 -40 0 -2 -76 -4 -169
-4 l-169 0 19 37 c18 35 19 68 19 609 0 475 -2 578 -15 613 l-14 41 170 0 169
0 -17 -27z"/>
<path d="M4750 1433 c0 -22 8 -31 33 -43 58 -27 58 -34 55 -650 -3 -612 -2
-601 -65 -630 -25 -12 -33 -21 -33 -42 l0 -28 180 0 180 0 0 28 c0 22 -7 32
-34 45 -26 12 -38 26 -46 54 -7 26 -10 194 -8 528 l3 491 290 -395 c160 -217
302 -420 318 -450 21 -42 27 -68 27 -118 0 -58 -3 -68 -29 -94 -16 -16 -37
-29 -45 -29 -11 0 -16 -9 -16 -30 l0 -30 190 0 190 0 0 28 c0 21 -8 30 -33 42
-18 8 -40 30 -50 50 -16 32 -17 76 -15 595 3 522 4 562 21 594 10 18 32 38 48
44 22 9 29 18 29 39 l0 28 -185 0 -185 0 0 -27 c0 -21 8 -32 32 -43 66 -31 69
-44 66 -259 l-3 -194 -57 84 c-31 46 -88 131 -127 188 -77 113 -90 159 -51
183 12 8 20 24 20 40 l0 28 -350 0 -350 0 0 -27z m595 -62 c-10 -48 17 -101
156 -305 139 -204 156 -220 204 -198 33 15 37 49 33 274 -3 160 -6 198 -21
226 l-18 32 60 0 59 0 -15 -31 c-27 -54 -32 -160 -32 -639 -1 -443 6 -581 30
-604 19 -20 7 -26 -52 -26 -54 0 -60 2 -54 17 34 84 29 164 -18 256 -48 95
-632 883 -659 890 -28 8 -66 -16 -73 -46 -3 -12 -5 -251 -3 -532 3 -454 5
-514 20 -547 l17 -38 -55 0 c-53 0 -55 1 -48 23 21 65 24 137 24 650 0 465 -2
563 -14 592 l-15 35 240 0 241 0 -7 -29z"/>
<path d="M18 1159 c-2 -55 -1 -103 1 -105 2 -2 334 -4 738 -4 l733 0 0 105 0
105 -734 0 -735 0 -3 -101z m1412 -4 l0 -45 -675 0 -675 0 0 45 0 45 675 0
675 0 0 -45z"/>
<path d="M8310 1155 l0 -105 845 0 845 0 0 105 0 105 -845 0 -845 0 0 -105z
m1630 0 l0 -45 -785 0 -785 0 0 45 0 45 785 0 785 0 0 -45z"/>
</g>
</svg>
